<?xml version="1.0" encoding="utf-8"?>
<svg xmlns="http://www.w3.org/2000/svg" viewBox="116.0054 339.6397 289.1 219.78" width="289.1px" height="219.78px">
  <defs>
    <radialGradient gradientUnits="userSpaceOnUse" cx="429.487" cy="34.359" r="144.55" id="gradient-0" spreadMethod="reflect">
      <stop offset="0.02" stop-color="#3555a5"/>
      <stop offset="0.06" stop-color="#3859a8"/>
      <stop offset="0.28" stop-color="#456cb4"/>
      <stop offset="0.51" stop-color="#4d78bc"/>
      <stop offset="0.75" stop-color="#507cbf"/>
    </radialGradient>
  </defs>
  <g id="Layer_1" transform="matrix(1, 0, 0, 1, -168.9315948486328, 415.1706848144531)">
    <path class="cls-1" d="M 531.007 -75.531 L 328.307 -75.531 L 284.937 -18.361 L 372.987 -18.361 C 396.237 -18.361 412.787 -18.451 424.967 -18.691 L 561.587 -40.781 C 562.217 -43.151 562.547 -45.551 562.547 -47.931 C 562.547 -65.671 548.087 -75.531 531.007 -75.531 L 531.007 -75.531 Z M 494.207 87.749 C 470.437 87.749 443.077 88.059 424.817 88.459 L 424.797 88.459 L 294.047 109.609 C 293.467 111.919 293.157 114.279 293.157 116.659 C 293.157 134.399 307.607 144.249 324.697 144.249 L 532.977 144.249 L 574.037 87.749 L 494.207 87.749 L 494.207 87.749 Z M 415.787 82.659 C 425.387 75.589 440.527 64.029 466.617 43.399 L 547.757 -20.991 C 552.247 -24.361 555.877 -28.501 558.407 -33.011 L 440.557 -13.961 C 430.937 -7.031 415.257 4.539 388.097 26.309 L 307.937 89.389 C 303.367 92.979 299.677 97.229 297.137 101.839 L 415.777 82.669 L 415.787 82.659 Z" style="stroke-width: 0; fill: url(&quot;#gradient-0&quot;); paint-order: stroke markers; fill-rule: evenodd;"/>
  </g>
</svg>
